<mxfile host="Electron" modified="2024-07-16T14:50:30.459Z" agent="Mozilla/5.0 (X11; Linux x86_64) AppleWebKit/537.36 (KHTML, like Gecko) draw.io/24.5.3 Chrome/124.0.6367.207 Electron/30.0.6 Safari/537.36" etag="YzijVPq0jmozkwO_LdI2" version="24.5.3" type="device">
  <diagram name="Page-1" id="ob1ELTUp36BMHdaqQGnK">
    <mxGraphModel dx="1195" dy="808" grid="1" gridSize="10" guides="1" tooltips="1" connect="1" arrows="1" fold="1" page="1" pageScale="1" pageWidth="850" pageHeight="1100" math="0" shadow="0">
      <root>
        <mxCell id="0" />
        <mxCell id="1" parent="0" />
        <mxCell id="ph9kM3ZdTune_FUAI3Xe-6" style="edgeStyle=orthogonalEdgeStyle;rounded=0;orthogonalLoop=1;jettySize=auto;html=1;" parent="1" source="ph9kM3ZdTune_FUAI3Xe-1" target="ph9kM3ZdTune_FUAI3Xe-4" edge="1">
          <mxGeometry relative="1" as="geometry" />
        </mxCell>
        <mxCell id="ph9kM3ZdTune_FUAI3Xe-1" value="Security" style="ellipse;whiteSpace=wrap;html=1;fillColor=#dae8fc;strokeColor=#6c8ebf;" parent="1" vertex="1">
          <mxGeometry x="71.5" y="250" width="105" height="70" as="geometry" />
        </mxCell>
        <mxCell id="ph9kM3ZdTune_FUAI3Xe-12" style="edgeStyle=orthogonalEdgeStyle;rounded=0;orthogonalLoop=1;jettySize=auto;html=1;entryX=0.5;entryY=0;entryDx=0;entryDy=0;" parent="1" source="ph9kM3ZdTune_FUAI3Xe-2" target="ph9kM3ZdTune_FUAI3Xe-3" edge="1">
          <mxGeometry relative="1" as="geometry" />
        </mxCell>
        <mxCell id="ph9kM3ZdTune_FUAI3Xe-2" value="Resource Management" style="ellipse;whiteSpace=wrap;html=1;fillColor=#dae8fc;strokeColor=#6c8ebf;" parent="1" vertex="1">
          <mxGeometry x="318.5" y="250" width="105" height="70" as="geometry" />
        </mxCell>
        <mxCell id="ph9kM3ZdTune_FUAI3Xe-3" value="ML Resources" style="ellipse;whiteSpace=wrap;html=1;fillColor=#dae8fc;strokeColor=#6c8ebf;" parent="1" vertex="1">
          <mxGeometry x="311" y="399" width="120" height="80" as="geometry" />
        </mxCell>
        <mxCell id="ph9kM3ZdTune_FUAI3Xe-18" style="edgeStyle=orthogonalEdgeStyle;rounded=0;orthogonalLoop=1;jettySize=auto;html=1;entryX=0;entryY=0.5;entryDx=0;entryDy=0;" parent="1" source="ph9kM3ZdTune_FUAI3Xe-4" target="ph9kM3ZdTune_FUAI3Xe-3" edge="1">
          <mxGeometry relative="1" as="geometry" />
        </mxCell>
        <mxCell id="ph9kM3ZdTune_FUAI3Xe-4" value="Infrastructure" style="ellipse;whiteSpace=wrap;html=1;fillColor=#dae8fc;strokeColor=#6c8ebf;" parent="1" vertex="1">
          <mxGeometry x="64" y="399" width="120" height="80" as="geometry" />
        </mxCell>
        <mxCell id="ph9kM3ZdTune_FUAI3Xe-10" style="edgeStyle=orthogonalEdgeStyle;rounded=0;orthogonalLoop=1;jettySize=auto;html=1;entryX=0.5;entryY=1;entryDx=0;entryDy=0;" parent="1" source="ph9kM3ZdTune_FUAI3Xe-5" target="ph9kM3ZdTune_FUAI3Xe-3" edge="1">
          <mxGeometry relative="1" as="geometry" />
        </mxCell>
        <mxCell id="ph9kM3ZdTune_FUAI3Xe-5" value="Developer Resource" style="ellipse;whiteSpace=wrap;html=1;fillColor=#dae8fc;strokeColor=#6c8ebf;" parent="1" vertex="1">
          <mxGeometry x="318" y="559" width="106.78" height="71" as="geometry" />
        </mxCell>
        <mxCell id="ph9kM3ZdTune_FUAI3Xe-14" value="Administrates" style="text;html=1;align=center;verticalAlign=middle;whiteSpace=wrap;rounded=0;" parent="1" vertex="1">
          <mxGeometry x="383" y="344" width="60" height="30" as="geometry" />
        </mxCell>
        <mxCell id="ph9kM3ZdTune_FUAI3Xe-15" value="Executes" style="text;html=1;align=center;verticalAlign=middle;whiteSpace=wrap;rounded=0;" parent="1" vertex="1">
          <mxGeometry x="371" y="509" width="60" height="30" as="geometry" />
        </mxCell>
        <mxCell id="ph9kM3ZdTune_FUAI3Xe-16" value="Protects" style="text;html=1;align=center;verticalAlign=middle;whiteSpace=wrap;rounded=0;" parent="1" vertex="1">
          <mxGeometry x="120.5" y="344" width="60" height="30" as="geometry" />
        </mxCell>
        <mxCell id="ph9kM3ZdTune_FUAI3Xe-19" value="Runs" style="text;html=1;align=center;verticalAlign=middle;whiteSpace=wrap;rounded=0;" parent="1" vertex="1">
          <mxGeometry x="211" y="416" width="60" height="30" as="geometry" />
        </mxCell>
        <mxCell id="2U9mbCdV4iQE0KTy1GLF-2" style="edgeStyle=orthogonalEdgeStyle;rounded=0;orthogonalLoop=1;jettySize=auto;html=1;entryX=1;entryY=0.5;entryDx=0;entryDy=0;exitX=0.5;exitY=0;exitDx=0;exitDy=0;" parent="1" source="2U9mbCdV4iQE0KTy1GLF-1" target="ph9kM3ZdTune_FUAI3Xe-2" edge="1">
          <mxGeometry relative="1" as="geometry" />
        </mxCell>
        <mxCell id="2U9mbCdV4iQE0KTy1GLF-6" style="edgeStyle=orthogonalEdgeStyle;rounded=0;orthogonalLoop=1;jettySize=auto;html=1;entryX=1;entryY=0.5;entryDx=0;entryDy=0;" parent="1" source="2U9mbCdV4iQE0KTy1GLF-1" target="ph9kM3ZdTune_FUAI3Xe-3" edge="1">
          <mxGeometry relative="1" as="geometry" />
        </mxCell>
        <mxCell id="2U9mbCdV4iQE0KTy1GLF-10" style="edgeStyle=orthogonalEdgeStyle;rounded=0;orthogonalLoop=1;jettySize=auto;html=1;exitX=0.5;exitY=1;exitDx=0;exitDy=0;entryX=1;entryY=0.5;entryDx=0;entryDy=0;endArrow=block;endFill=0;" parent="1" source="2U9mbCdV4iQE0KTy1GLF-1" target="ph9kM3ZdTune_FUAI3Xe-5" edge="1">
          <mxGeometry relative="1" as="geometry" />
        </mxCell>
        <mxCell id="2U9mbCdV4iQE0KTy1GLF-1" value="Interface" style="ellipse;whiteSpace=wrap;html=1;fillColor=#d5e8d4;strokeColor=#82b366;" parent="1" vertex="1">
          <mxGeometry x="511" y="404" width="105" height="70" as="geometry" />
        </mxCell>
        <mxCell id="2U9mbCdV4iQE0KTy1GLF-9" style="edgeStyle=orthogonalEdgeStyle;rounded=0;orthogonalLoop=1;jettySize=auto;html=1;exitX=0;exitY=0.5;exitDx=0;exitDy=0;entryX=1;entryY=0.5;entryDx=0;entryDy=0;endArrow=block;endFill=0;" parent="1" source="2U9mbCdV4iQE0KTy1GLF-5" target="2U9mbCdV4iQE0KTy1GLF-1" edge="1">
          <mxGeometry relative="1" as="geometry" />
        </mxCell>
        <mxCell id="2U9mbCdV4iQE0KTy1GLF-5" value="REST API" style="ellipse;whiteSpace=wrap;html=1;fillColor=#d5e8d4;strokeColor=#82b366;" parent="1" vertex="1">
          <mxGeometry x="700" y="404" width="105" height="70" as="geometry" />
        </mxCell>
        <mxCell id="2U9mbCdV4iQE0KTy1GLF-11" value="Is a" style="text;html=1;align=center;verticalAlign=middle;whiteSpace=wrap;rounded=0;" parent="1" vertex="1">
          <mxGeometry x="460" y="570" width="60" height="30" as="geometry" />
        </mxCell>
        <mxCell id="2U9mbCdV4iQE0KTy1GLF-12" value="Is a" style="text;html=1;align=center;verticalAlign=middle;whiteSpace=wrap;rounded=0;" parent="1" vertex="1">
          <mxGeometry x="630" y="416" width="60" height="30" as="geometry" />
        </mxCell>
        <mxCell id="2U9mbCdV4iQE0KTy1GLF-13" value="Interact" style="text;html=1;align=center;verticalAlign=middle;whiteSpace=wrap;rounded=0;" parent="1" vertex="1">
          <mxGeometry x="480" y="262" width="60" height="30" as="geometry" />
        </mxCell>
        <mxCell id="2U9mbCdV4iQE0KTy1GLF-15" value="Interacts" style="text;html=1;align=center;verticalAlign=middle;whiteSpace=wrap;rounded=0;" parent="1" vertex="1">
          <mxGeometry x="443" y="416" width="60" height="30" as="geometry" />
        </mxCell>
        <mxCell id="cC3RtU826plFe26PlU0S-1" value="" style="rounded=0;whiteSpace=wrap;html=1;fillColor=#dae8fc;strokeColor=#6c8ebf;" vertex="1" parent="1">
          <mxGeometry x="630" y="520" width="10" height="10" as="geometry" />
        </mxCell>
        <mxCell id="cC3RtU826plFe26PlU0S-2" value="" style="rounded=0;whiteSpace=wrap;html=1;fillColor=#d5e8d4;strokeColor=#82b366;" vertex="1" parent="1">
          <mxGeometry x="630" y="539" width="10" height="10" as="geometry" />
        </mxCell>
        <mxCell id="cC3RtU826plFe26PlU0S-3" value="Theme" style="text;html=1;align=center;verticalAlign=middle;whiteSpace=wrap;rounded=0;" vertex="1" parent="1">
          <mxGeometry x="639" y="515.5" width="50" height="19" as="geometry" />
        </mxCell>
        <mxCell id="cC3RtU826plFe26PlU0S-4" value="Subtheme" style="text;html=1;align=center;verticalAlign=middle;whiteSpace=wrap;rounded=0;" vertex="1" parent="1">
          <mxGeometry x="648" y="534.5" width="50" height="19" as="geometry" />
        </mxCell>
      </root>
    </mxGraphModel>
  </diagram>
</mxfile>
